<svg id="visual" viewBox="0 0 900 600" width="900" height="600" xmlns="http://www.w3.org/2000/svg" xmlns:xlink="http://www.w3.org/1999/xlink" version="1.1"><rect x="0" y="0" width="900" height="600" fill="#fffaf0"></rect><path d="M456 600L482.2 580C508.3 560 560.7 520 541.5 480C522.3 440 431.7 400 429.3 360C427 320 513 280 523.3 240C533.7 200 468.3 160 451.5 120C434.7 80 466.3 40 482.2 20L498 0L900 0L900 20C900 40 900 80 900 120C900 160 900 200 900 240C900 280 900 320 900 360C900 400 900 440 900 480C900 520 900 560 900 580L900 600Z" fill="#00BFA6" stroke-linecap="round" stroke-linejoin="miter"></path></svg>